<svg width="24" height="24" version="1.1">
	<path style="fill:#bebebe" d="M 4.75 13.5 A 1.25 1.25 0 0 0 3.5 14.75 L 3.5 17.25 C 3.5 19.030131 4.9699032 20.5 6.75 20.5 L 9.25 20.5 A 1.25 1.25 0 0 0 10.5 19.25 A 1.25 1.25 0 0 0 9.25 18 L 6.75 18 C 6.3209568 18 6 17.679069 6 17.25 L 6 14.75 A 1.25 1.25 0 0 0 4.75 13.5 z"/>
	<path style="fill:#bebebe" d="M 19.25 13.5 A 1.25 1.25 0 0 0 18 14.75 L 18 17.25 C 18 17.679092 17.679092 18 17.25 18 L 14.75 18 A 1.25 1.25 0 0 0 13.5 19.25 A 1.25 1.25 0 0 0 14.75 20.5 L 17.25 20.5 C 19.030108 20.5 20.5 19.030108 20.5 17.25 L 20.5 14.75 A 1.25 1.25 0 0 0 19.25 13.5 z"/>
	<path style="fill:#bebebe" d="M 14.75 3.5 A 1.25 1.25 0 0 0 13.5 4.75 A 1.25 1.25 0 0 0 14.75 6 L 17.25 6 C 17.679069 6 18 6.3209568 18 6.75 L 18 9.25 A 1.25 1.25 0 0 0 19.25 10.5 A 1.25 1.25 0 0 0 20.5 9.25 L 20.5 6.75 C 20.5 4.9699032 19.030131 3.5 17.25 3.5 L 14.75 3.5 z"/>
	<path style="fill:#bebebe" d="M 6.75 3.5 C 4.9698805 3.5 3.5 4.9698805 3.5 6.75 L 3.5 9.25 A 1.25 1.25 0 0 0 4.75 10.5 A 1.25 1.25 0 0 0 6 9.25 L 6 6.75 C 6 6.3209795 6.3209795 6 6.75 6 L 9.25 6 A 1.25 1.25 0 0 0 10.5 4.75 A 1.25 1.25 0 0 0 9.25 3.5 L 6.75 3.5 z"/>
</svg>
