<svg width="24" height="24" version="1.1">
	<path style="fill:#bebebe" d="M 4.75 13.5 A 1.25 1.25 0 0 0 3.5 14.75 A 1.25 1.25 0 0 0 4.75 16 L 7.25 16 C 7.6790432 16 8 16.320931 8 16.75 L 8 19.25 A 1.25 1.25 0 0 0 9.25 20.5 A 1.25 1.25 0 0 0 10.5 19.25 L 10.5 16.75 C 10.5 14.969869 9.0300968 13.5 7.25 13.5 L 4.75 13.5 z"/>
	<path  style="fill:#bebebe" d="M 16.75 13.5 C 14.969892 13.5 13.5 14.969892 13.5 16.75 L 13.5 19.25 A 1.25 1.25 0 0 0 14.75 20.5 A 1.25 1.25 0 0 0 16 19.25 L 16 16.75 C 16 16.320908 16.320908 16 16.75 16 L 19.25 16 A 1.25 1.25 0 0 0 20.5 14.75 A 1.25 1.25 0 0 0 19.25 13.5 L 16.75 13.5 z"/>
	<path style="fill:#bebebe" d="M 14.75 3.5 A 1.25 1.25 0 0 0 13.5 4.75 L 13.5 7.25 C 13.5 9.0300968 14.969869 10.5 16.75 10.5 L 19.25 10.5 A 1.25 1.25 0 0 0 20.5 9.25 A 1.25 1.25 0 0 0 19.25 8 L 16.75 8 C 16.320931 8 16 7.6790432 16 7.25 L 16 4.75 A 1.25 1.25 0 0 0 14.75 3.5 z"/>
	<path style="fill:#bebebe" d="M 9.25 3.5 A 1.25 1.25 0 0 0 8 4.75 L 8 7.25 C 8 7.6790205 7.6790205 8 7.25 8 L 4.75 8 A 1.25 1.25 0 0 0 3.5 9.25 A 1.25 1.25 0 0 0 4.75 10.5 L 7.25 10.5 C 9.0301195 10.5 10.5 9.0301195 10.5 7.25 L 10.5 4.75 A 1.25 1.25 0 0 0 9.25 3.5 z"/>
</svg>
